<?xml version="1.0" standalone="no"?>
<!DOCTYPE svg PUBLIC "-//W3C//DTD SVG 20010904//EN"
 "http://www.w3.org/TR/2001/REC-SVG-20010904/DTD/svg10.dtd">
<svg version="1.0" xmlns="http://www.w3.org/2000/svg"
 width="181" height="47" viewBox="0 0 564.000000 564.000000"
 preserveAspectRatio="xMidYMid meet">
<metadata>
Created by potrace 1.16, written by Peter Selinger 2001-2019
</metadata>
<g transform="translate(0.000000,564.000000) scale(0.100000,-0.100000)"
fill="#000000" stroke="none">
<path d="M0 2820 l0 -2820 2820 0 2820 0 0 2820 0 2820 -2820 0 -2820 0 0
-2820z m2460 572 c0 -129 -139 -262 -272 -262 -35 0 -38 2 -38 29 0 64 54 161
112 203 41 28 123 57 166 58 29 0 32 -3 32 -28z m335 -337 c22 -4 59 -17 82
-31 43 -25 113 -101 113 -123 0 -7 -30 -26 -66 -43 l-66 -31 -29 36 c-57 69
-154 74 -227 11 -94 -80 -79 -244 28 -301 76 -40 150 -27 203 37 l26 30 65
-32 c37 -18 66 -37 66 -44 0 -23 -84 -106 -133 -131 -57 -29 -73 -30 -352 -25
l-170 2 30 20 c40 25 71 67 83 114 13 45 -3 116 -47 202 -16 33 -39 104 -51
158 -16 71 -29 106 -46 123 -13 13 -24 25 -24 26 0 1 71 1 157 -1 87 -1 183 1
213 7 54 9 67 8 145 -4z m2084 -18 c76 -28 152 -104 181 -182 30 -83 25 -197
-13 -271 -91 -178 -338 -237 -510 -121 -52 35 -108 110 -127 171 -20 63 -8
191 22 251 51 97 142 161 252 174 77 9 126 4 195 -22z m-3616 -300 c64 -171
117 -316 117 -320 0 -4 -41 -6 -91 -5 l-91 3 -17 45 c-11 31 -22 45 -34 44 -9
-1 -66 -2 -126 -3 l-109 -1 -14 -42 -15 -43 -91 -3 c-65 -2 -92 1 -92 9 0 6
48 138 106 293 59 154 111 293 116 309 l10 27 106 0 107 0 118 -313z m325 86
c42 -123 78 -221 80 -218 5 4 127 357 143 413 l10 32 105 0 106 0 -24 -28
c-15 -19 -31 -59 -42 -113 -11 -46 -38 -128 -62 -181 -64 -143 -57 -209 29
-283 l41 -35 -206 0 c-187 0 -206 2 -211 18 -3 9 -57 153 -120 320 l-115 303
95 -3 96 -3 75 -222z m1974 -88 c65 -170 118 -314 118 -318 0 -4 -42 -6 -92
-5 l-92 3 -17 45 -17 45 -120 1 c-132 2 -132 2 -152 -59 l-12 -38 -91 3 c-55
2 -91 7 -90 13 2 8 71 194 209 558 l26 68 106 -3 106 -3 118 -310z m584 294
c32 -12 77 -40 102 -62 157 -146 122 -415 -68 -512 -69 -35 -137 -45 -300 -45
l-150 0 0 320 0 320 180 0 c159 0 186 -2 236 -21z m-1890 -250 c82 -76 70
-197 -24 -252 -67 -39 -163 -15 -204 51 -45 73 -18 179 55 216 48 25 139 17
173 -15z"/>
<path d="M4664 2901 c-74 -33 -112 -124 -92 -214 20 -92 90 -143 186 -135 95
8 152 76 152 183 0 78 -29 130 -89 162 -53 28 -102 29 -157 4z"/>
<path d="M1001 2778 c-19 -57 -36 -109 -38 -115 -4 -10 15 -13 77 -13 61 0 80
3 77 13 -3 6 -20 58 -39 114 -18 56 -35 103 -38 103 -3 0 -21 -46 -39 -102z"/>
<path d="M3297 2773 c-21 -59 -37 -111 -37 -115 0 -5 36 -8 79 -8 l80 0 -36
108 c-20 59 -39 111 -43 115 -3 4 -23 -41 -43 -100z"/>
<path d="M3898 2735 l-3 -175 79 0 c66 0 86 4 121 25 54 31 79 81 79 156 -1
113 -67 168 -201 169 l-72 0 -3 -175z"/>
</g>
</svg>
